<?xml version="1.0" encoding="UTF-8" standalone="no"?><!DOCTYPE svg PUBLIC "-//W3C//DTD SVG 1.1//EN" "http://www.w3.org/Graphics/SVG/1.1/DTD/svg11.dtd"><!-- Generated by graphviz version 2.40.1 (20161225.0304)
 --><!-- Title: G Pages: 1 --><svg xmlns="http://www.w3.org/2000/svg" xmlns:xlink="http://www.w3.org/1999/xlink" width="125pt" height="332pt" viewBox="0.00 0.00 125.00 332.00">
<g id="graph0" class="graph" transform="scale(1 1) rotate(0) translate(4 328)">
<title>G</title>
<polygon fill="#ffffff" stroke="transparent" points="-4,4 -4,-328 121,-328 121,4 -4,4"/>
<!-- 0 -->
<g id="node1" class="node">
<title>0</title>
<ellipse fill="none" stroke="#000000" cx="45" cy="-306" rx="18" ry="18"/>
<text text-anchor="middle" x="45" y="-301.8" font-family="Times,serif" font-size="14.00" fill="#000000">*</text>
</g>
<!-- 1 -->
<g id="node2" class="node">
<title>1</title>
<ellipse fill="none" stroke="#000000" cx="18" cy="-162" rx="18" ry="18"/>
<text text-anchor="middle" x="18" y="-157.8" font-family="Times,serif" font-size="14.00" fill="#000000">3</text>
</g>
<!-- 0&#45;&gt;1 -->
<g id="edge1" class="edge">
<title>0-&gt;1</title>
<path fill="none" stroke="#000000" d="M41.635,-288.0535C37.0018,-263.3431 28.6153,-218.6152 23.1794,-189.6234"/>
<polygon fill="#000000" stroke="#000000" points="26.6056,-188.904 21.3226,-179.7204 19.7255,-190.1941 26.6056,-188.904"/>
</g>
<!-- 2 -->
<g id="node3" class="node">
<title>2</title>
<ellipse fill="none" stroke="#000000" cx="72" cy="-162" rx="18" ry="18"/>
<text text-anchor="middle" x="72" y="-157.8" font-family="Times,serif" font-size="14.00" fill="#000000">+</text>
</g>
<!-- 0&#45;&gt;2 -->
<g id="edge2" class="edge">
<title>0-&gt;2</title>
<path fill="none" stroke="#000000" d="M48.365,-288.0535C52.9982,-263.3431 61.3847,-218.6152 66.8206,-189.6234"/>
<polygon fill="#000000" stroke="#000000" points="70.2745,-190.1941 68.6774,-179.7204 63.3944,-188.904 70.2745,-190.1941"/>
</g>
<!-- 3 -->
<g id="node4" class="node">
<title>3</title>
<ellipse fill="none" stroke="#000000" cx="45" cy="-18" rx="18" ry="18"/>
<text text-anchor="middle" x="45" y="-13.8" font-family="Times,serif" font-size="14.00" fill="#000000">2</text>
</g>
<!-- 2&#45;&gt;3 -->
<g id="edge3" class="edge">
<title>2-&gt;3</title>
<path fill="none" stroke="#000000" d="M68.635,-144.0535C64.0018,-119.3431 55.6153,-74.6152 50.1794,-45.6234"/>
<polygon fill="#000000" stroke="#000000" points="53.6056,-44.904 48.3226,-35.7204 46.7255,-46.1941 53.6056,-44.904"/>
</g>
<!-- 4 -->
<g id="node5" class="node">
<title>4</title>
<ellipse fill="none" stroke="#000000" cx="99" cy="-18" rx="18" ry="18"/>
<text text-anchor="middle" x="99" y="-13.8" font-family="Times,serif" font-size="14.00" fill="#000000">3</text>
</g>
<!-- 2&#45;&gt;4 -->
<g id="edge4" class="edge">
<title>2-&gt;4</title>
<path fill="none" stroke="#000000" d="M75.365,-144.0535C79.9982,-119.3431 88.3847,-74.6152 93.8206,-45.6234"/>
<polygon fill="#000000" stroke="#000000" points="97.2745,-46.1941 95.6774,-35.7204 90.3944,-44.904 97.2745,-46.1941"/>
</g>
</g>
</svg>