<?xml version="1.0" encoding="UTF-8" standalone="no"?><!DOCTYPE svg PUBLIC "-//W3C//DTD SVG 1.1//EN" "http://www.w3.org/Graphics/SVG/1.1/DTD/svg11.dtd"><!-- Generated by graphviz version 2.40.1 (20161225.0304)
 --><!-- Title: G Pages: 1 --><svg xmlns="http://www.w3.org/2000/svg" xmlns:xlink="http://www.w3.org/1999/xlink" width="940pt" height="315pt" viewBox="0.00 0.00 939.72 315.17">
<g id="graph0" class="graph" transform="scale(1 1) rotate(0) translate(4 311.1655)">
<title>G</title>
<polygon fill="#ffffff" stroke="transparent" points="-4,4 -4,-311.1655 935.7229,-311.1655 935.7229,4 -4,4"/>
<!-- end1 -->
<g id="node1" class="node">
<title>end1</title>
<ellipse fill="none" stroke="#00ff00" cx="340.4469" cy="-193.3655" rx="21.4296" ry="21.4296"/>
<ellipse fill="none" stroke="#00ff00" cx="340.4469" cy="-193.3655" rx="25.4668" ry="25.4668"/>
<text text-anchor="middle" x="340.4469" y="-189.1655" font-family="Times,serif" font-size="14.00" fill="#00ff00">int</text>
</g>
<!-- end2 -->
<g id="node2" class="node">
<title>end2</title>
<ellipse fill="none" stroke="#00ff00" cx="519.1261" cy="-254.3655" rx="21.4296" ry="21.4296"/>
<ellipse fill="none" stroke="#00ff00" cx="519.1261" cy="-254.3655" rx="25.4668" ry="25.4668"/>
<text text-anchor="middle" x="519.1261" y="-250.1655" font-family="Times,serif" font-size="14.00" fill="#00ff00">int</text>
</g>
<!-- end3 -->
<g id="node3" class="node">
<title>end3</title>
<ellipse fill="none" stroke="#00ff00" cx="705.3069" cy="-241.3655" rx="28.9406" ry="28.9406"/>
<ellipse fill="none" stroke="#00ff00" cx="705.3069" cy="-241.3655" rx="32.9693" ry="32.9693"/>
<text text-anchor="middle" x="705.3069" y="-237.1655" font-family="Times,serif" font-size="14.00" fill="#00ff00">float</text>
</g>
<!-- end4 -->
<g id="node4" class="node">
<title>end4</title>
<ellipse fill="none" stroke="#00ff00" cx="898.9891" cy="-105.3655" rx="28.9406" ry="28.9406"/>
<ellipse fill="none" stroke="#00ff00" cx="898.9891" cy="-105.3655" rx="32.9693" ry="32.9693"/>
<text text-anchor="middle" x="898.9891" y="-101.1655" font-family="Times,serif" font-size="14.00" fill="#00ff00">float</text>
</g>
<!-- error -->
<g id="node5" class="node">
<title>error</title>
<ellipse fill="none" stroke="#ff0000" cx="705.3069" cy="-163.3655" rx="23.2513" ry="23.2513"/>
<ellipse fill="none" stroke="#ff0000" cx="705.3069" cy="-163.3655" rx="27.2317" ry="27.2317"/>
<text text-anchor="middle" x="705.3069" y="-159.1655" font-family="Times,serif" font-size="14.00" fill="#ff0000">Err</text>
</g>
<!-- error2 -->
<g id="node6" class="node">
<title>error2</title>
<ellipse fill="none" stroke="#ff0000" cx="898.9891" cy="-27.3655" rx="23.2513" ry="23.2513"/>
<ellipse fill="none" stroke="#ff0000" cx="898.9891" cy="-27.3655" rx="27.2317" ry="27.2317"/>
<text text-anchor="middle" x="898.9891" y="-23.1655" font-family="Times,serif" font-size="14.00" fill="#ff0000">Err</text>
</g>
<!-- 0 -->
<g id="node7" class="node">
<title>0</title>
<ellipse fill="none" stroke="#000000" cx="18" cy="-233.3655" rx="18" ry="18"/>
<text text-anchor="middle" x="18" y="-229.1655" font-family="Times,serif" font-size="14.00" fill="#000000">0</text>
</g>
<!-- 1 -->
<g id="node8" class="node">
<title>1</title>
<ellipse fill="none" stroke="#000000" cx="169" cy="-189.3655" rx="18" ry="18"/>
<text text-anchor="middle" x="169" y="-185.1655" font-family="Times,serif" font-size="14.00" fill="#000000">1</text>
</g>
<!-- 0&#45;&gt;1 -->
<g id="edge1" class="edge">
<title>0-&gt;1</title>
<path fill="none" stroke="#000000" d="M35.3216,-228.3182C61.3516,-220.7333 110.7914,-206.327 141.7031,-197.3196"/>
<polygon fill="#000000" stroke="#000000" points="142.7937,-200.6474 151.4153,-194.4896 140.8354,-193.9269 142.7937,-200.6474"/>
<text text-anchor="middle" x="93.5" y="-215.5655" font-family="Times,serif" font-size="14.00" fill="#000000">0</text>
</g>
<!-- 2 -->
<g id="node9" class="node">
<title>2</title>
<ellipse fill="none" stroke="#000000" cx="340.4469" cy="-254.3655" rx="18" ry="18"/>
<text text-anchor="middle" x="340.4469" y="-250.1655" font-family="Times,serif" font-size="14.00" fill="#000000">2</text>
</g>
<!-- 0&#45;&gt;2 -->
<g id="edge6" class="edge">
<title>0-&gt;2</title>
<path fill="none" stroke="#000000" d="M36.0089,-236.2838C61.5197,-240.2769 109.6787,-247.2971 151,-250.3655 208.1811,-254.6116 275.3166,-254.9301 312.3459,-254.7008"/>
<polygon fill="#000000" stroke="#000000" points="312.4215,-258.2004 322.3931,-254.6202 312.3653,-251.2006 312.4215,-258.2004"/>
<text text-anchor="middle" x="169" y="-256.5655" font-family="Times,serif" font-size="14.00" fill="#000000">1-9</text>
</g>
<!-- 1&#45;&gt;end1 -->
<g id="edge10" class="edge">
<title>1-&gt;end1</title>
<path fill="none" stroke="#000000" d="M187.0238,-189.786C214.9587,-190.4378 269.2276,-191.7039 305.1557,-192.5422"/>
<polygon fill="#000000" stroke="#000000" points="305.1373,-196.0426 315.2163,-192.7769 305.3007,-189.0445 305.1373,-196.0426"/>
<text text-anchor="middle" x="251.1073" y="-196.5655" font-family="Times,serif" font-size="14.00" fill="#000000">any</text>
</g>
<!-- 1&#45;&gt;1 -->
<g id="edge2" class="edge">
<title>1-&gt;1</title>
<path fill="none" stroke="#000000" d="M157.0762,-203.0325C152.3066,-214.0218 156.2813,-225.3655 169,-225.3655 177.7441,-225.3655 182.3553,-220.0038 182.8335,-213.0818"/>
<polygon fill="#000000" stroke="#000000" points="186.2293,-212.2033 180.9238,-203.0325 179.3523,-213.5102 186.2293,-212.2033"/>
<text text-anchor="middle" x="169" y="-229.5655" font-family="Times,serif" font-size="14.00" fill="#000000">0</text>
</g>
<!-- 1&#45;&gt;2 -->
<g id="edge3" class="edge">
<title>1-&gt;2</title>
<path fill="none" stroke="#000000" d="M186.0658,-195.8356C215.9762,-207.1754 278.0694,-230.7166 313.7215,-244.2332"/>
<polygon fill="#000000" stroke="#000000" points="312.8588,-247.6492 323.4501,-247.9216 315.3404,-241.1038 312.8588,-247.6492"/>
<text text-anchor="middle" x="251.1073" y="-227.5655" font-family="Times,serif" font-size="14.00" fill="#000000">1-9</text>
</g>
<!-- 3 -->
<g id="node10" class="node">
<title>3</title>
<ellipse fill="none" stroke="#000000" cx="519.1261" cy="-163.3655" rx="18" ry="18"/>
<text text-anchor="middle" x="519.1261" y="-159.1655" font-family="Times,serif" font-size="14.00" fill="#000000">3</text>
</g>
<!-- 1&#45;&gt;3 -->
<g id="edge5" class="edge">
<title>1-&gt;3</title>
<path fill="none" stroke="#000000" d="M185.6931,-182.1374C212.4242,-170.9981 266.76,-150.1311 315.2146,-142.5655 378.0167,-132.7598 452.4532,-146.7644 491.7133,-156.1261"/>
<polygon fill="#000000" stroke="#000000" points="491.0415,-159.5652 501.5887,-158.562 492.7179,-152.7689 491.0415,-159.5652"/>
<text text-anchor="middle" x="340.4469" y="-147.5655" font-family="Times,serif" font-size="14.00" fill="#000000">.</text>
</g>
<!-- 2&#45;&gt;end2 -->
<g id="edge11" class="edge">
<title>2-&gt;end2</title>
<path fill="none" stroke="#000000" d="M358.5629,-254.3655C387.839,-254.3655 446.0708,-254.3655 483.7751,-254.3655"/>
<polygon fill="#000000" stroke="#000000" points="483.8243,-257.8656 493.8242,-254.3655 483.8242,-250.8656 483.8243,-257.8656"/>
<text text-anchor="middle" x="429.7865" y="-258.5655" font-family="Times,serif" font-size="14.00" fill="#000000">any</text>
</g>
<!-- 2&#45;&gt;2 -->
<g id="edge4" class="edge">
<title>2-&gt;2</title>
<path fill="none" stroke="#000000" d="M327.1051,-266.5373C320.1871,-277.9671 324.6344,-290.3655 340.4469,-290.3655 351.8121,-290.3655 357.3061,-283.9605 356.9287,-276.1137"/>
<polygon fill="#000000" stroke="#000000" points="360.2303,-274.949 353.7887,-266.5373 353.5787,-277.13 360.2303,-274.949"/>
<text text-anchor="middle" x="340.4469" y="-294.5655" font-family="Times,serif" font-size="14.00" fill="#000000">0-9</text>
</g>
<!-- 2&#45;&gt;3 -->
<g id="edge8" class="edge">
<title>2-&gt;3</title>
<path fill="none" stroke="#000000" d="M356.6186,-246.1294C387.7677,-230.2654 456.3022,-195.3613 493.6468,-176.342"/>
<polygon fill="#000000" stroke="#000000" points="495.5397,-179.3058 502.8622,-171.6486 492.3629,-173.0681 495.5397,-179.3058"/>
<text text-anchor="middle" x="429.7865" y="-216.5655" font-family="Times,serif" font-size="14.00" fill="#000000">.</text>
</g>
<!-- 3&#45;&gt;end3 -->
<g id="edge13" class="edge">
<title>3-&gt;end3</title>
<path fill="none" stroke="#000000" d="M535.9768,-170.4251C565.0636,-182.6109 625.436,-207.9038 665.6659,-224.758"/>
<polygon fill="#000000" stroke="#000000" points="664.3509,-228.0018 674.9266,-228.6378 667.0558,-221.5455 664.3509,-228.0018"/>
<text text-anchor="middle" x="608.4657" y="-209.5655" font-family="Times,serif" font-size="14.00" fill="#000000">any</text>
</g>
<!-- 3&#45;&gt;error -->
<g id="edge12" class="edge">
<title>3-&gt;error</title>
<path fill="none" stroke="#000000" d="M537.3169,-163.3655C567.3868,-163.3655 628.0647,-163.3655 667.6701,-163.3655"/>
<polygon fill="#000000" stroke="#000000" points="667.7461,-166.8656 677.746,-163.3655 667.746,-159.8656 667.7461,-166.8656"/>
<text text-anchor="middle" x="608.4657" y="-167.5655" font-family="Times,serif" font-size="14.00" fill="#000000">.</text>
</g>
<!-- 4 -->
<g id="node11" class="node">
<title>4</title>
<ellipse fill="none" stroke="#000000" cx="705.3069" cy="-66.3655" rx="18" ry="18"/>
<text text-anchor="middle" x="705.3069" y="-62.1655" font-family="Times,serif" font-size="14.00" fill="#000000">4</text>
</g>
<!-- 3&#45;&gt;4 -->
<g id="edge7" class="edge">
<title>3-&gt;4</title>
<path fill="none" stroke="#000000" d="M535.3228,-154.9271C567.8645,-137.9729 641.3814,-99.6706 680.2037,-79.4442"/>
<polygon fill="#000000" stroke="#000000" points="682.0289,-82.4399 689.2803,-74.7154 678.7945,-76.2319 682.0289,-82.4399"/>
<text text-anchor="middle" x="608.4657" y="-125.5655" font-family="Times,serif" font-size="14.00" fill="#000000">0-9</text>
</g>
<!-- 4&#45;&gt;end4 -->
<g id="edge14" class="edge">
<title>4-&gt;end4</title>
<path fill="none" stroke="#000000" d="M723.1809,-69.9647C753.3744,-76.0444 815.2571,-88.5052 856.9453,-96.8996"/>
<polygon fill="#000000" stroke="#000000" points="856.3221,-100.3442 866.8162,-98.8872 857.7039,-93.482 856.3221,-100.3442"/>
<text text-anchor="middle" x="802.148" y="-91.5655" font-family="Times,serif" font-size="14.00" fill="#000000">any</text>
</g>
<!-- 4&#45;&gt;error2 -->
<g id="edge15" class="edge">
<title>4-&gt;error2</title>
<path fill="none" stroke="#000000" d="M723.1809,-62.7664C754.6056,-56.4387 820.3563,-43.1991 861.9405,-34.8257"/>
<polygon fill="#000000" stroke="#000000" points="862.8442,-38.214 871.9565,-32.8088 861.4624,-31.3518 862.8442,-38.214"/>
<text text-anchor="middle" x="802.148" y="-52.5655" font-family="Times,serif" font-size="14.00" fill="#000000">.</text>
</g>
<!-- 4&#45;&gt;4 -->
<g id="edge9" class="edge">
<title>4-&gt;4</title>
<path fill="none" stroke="#000000" d="M691.2619,-77.7934C683.0002,-89.4222 687.6819,-102.3655 705.3069,-102.3655 718.2502,-102.3655 724.2131,-95.3851 723.1956,-87.0711"/>
<polygon fill="#000000" stroke="#000000" points="726.4129,-85.6922 719.3518,-77.7934 719.946,-88.3715 726.4129,-85.6922"/>
<text text-anchor="middle" x="705.3069" y="-106.5655" font-family="Times,serif" font-size="14.00" fill="#000000">0-9</text>
</g>
</g>
</svg>